<?xml version="1.0" encoding="UTF-8" standalone="no"?>
<svg
   xmlns:dc="http://purl.org/dc/elements/1.1/"
   xmlns:cc="http://creativecommons.org/ns#"
   xmlns:rdf="http://www.w3.org/1999/02/22-rdf-syntax-ns#"
   xmlns:svg="http://www.w3.org/2000/svg"
   xmlns="http://www.w3.org/2000/svg"
   xmlns:sodipodi="http://sodipodi.sourceforge.net/DTD/sodipodi-0.dtd"
   xmlns:inkscape="http://www.inkscape.org/namespaces/inkscape"
   width="96"
   height="72"
   viewBox="0 0 96 72"
   id="svg3394"
   version="1.1"
   inkscape:version="0.91 r13725"
   sodipodi:docname="map-marker.svg">
  <metadata
     id="metadata3404">
    <rdf:RDF>
      <cc:Work
         rdf:about="">
        <dc:format>image/svg+xml</dc:format>
        <dc:type
           rdf:resource="http://purl.org/dc/dcmitype/StillImage" />
        <dc:title></dc:title>
      </cc:Work>
    </rdf:RDF>
  </metadata>
  <defs
     id="defs3402" />
  <sodipodi:namedview
     pagecolor="#ffffff"
     bordercolor="#666666"
     borderopacity="1"
     objecttolerance="10"
     gridtolerance="10"
     guidetolerance="10"
     inkscape:pageopacity="0"
     inkscape:pageshadow="2"
     inkscape:window-width="958"
     inkscape:window-height="1195"
     id="namedview3400"
     showgrid="false"
     inkscape:zoom="2.8899401"
     inkscape:cx="10.702001"
     inkscape:cy="6.9195226"
     inkscape:window-x="0"
     inkscape:window-y="0"
     inkscape:window-maximized="0"
     inkscape:current-layer="svg3394" />
  <g
     id="g3336"
     transform="matrix(1.4706893,-0.69006338,0.7258027,1.398271,-29.127658,-21.755795)">
    <path
       sodipodi:nodetypes="cccccccc"
       style="fill:#d84335"
       inkscape:connector-curvature="0"
       id="path3396"
       d="M 2,39.571 C 2.015,29.083 12.436,22.151 21.83,26.6 c 8.452,4.002 10.508,13.063 5.409,21.557 -4.682,7.799 -9.337,15.649 -9.972,25.073 -0.056,0.828 -0.249,1.529 -1.248,1.539 -0.992,0.01 -1.207,-0.664 -1.281,-1.504 C 13.952,64.33 10.14,56.6 5.188,49.32 3.262,46.488 1.996,42.52 2,39.571 Z" />
    <g
       transform="matrix(0,0.24928154,-0.24928154,0,12.965133,10.251882)"
       id="g3446">
      <path
         inkscape:connector-curvature="0"
         id="path227"
         d="m 73.717141,7.05991 c 0.739188,-0.028953 1.860521,-0.1177293 3.012729,-0.1177293 1.121329,0 2.715506,0.088781 3.454694,0.1177293 l 0,-0.826037 -1.358719,-0.148614 C 78.175438,5.9964827 77.851199,5.7899721 77.851199,3.7229408 l 0,-8.3568918 c 0.914818,-0.7372604 2.097906,-1.1213282 3.130459,-1.1213282 0.532677,0 1.269937,0.088781 1.625057,0.2663385 l 0.235459,-2.0380783 c -0.35512,-0.088776 -0.739188,-0.1775575 -1.269938,-0.1775575 -1.21011,0 -2.98185,1.0344793 -3.721037,2.0670266 l 0,-2.2156359 c -1.476448,0.6504064 -2.568829,0.9765779 -4.10511,1.4185472 l 0,0.7083073 c 1.920349,0.384073 1.920349,0.7391925 1.920349,2.2445889 l 0,7.2046832 c 0,2.0670313 -0.295287,2.2445889 -0.974646,2.3623182 l -0.974651,0.148614 z m 17.097856,0.3551195 c 2.126858,0 3.985448,-0.914818 4.547074,-1.8315676 L 95.273295,4.846201 c -0.943772,0.4728492 -2.21371,0.8260418 -3.896668,0.8260418 -3.308017,0 -4.902198,-2.6576094 -4.902198,-5.84596425 0,-0.26634368 0,-0.56163014 0.02897,-0.85692175 l 9.538048,0 c 0.05984,-0.3840678 0.05984,-0.6793594 0.05984,-1.0634272 0,-2.8641201 -1.771742,-5.6105061 -5.434875,-5.6105061 -3.83877,0 -6.525325,3.3080161 -6.525325,7.79526154 0,4.51812576 2.333364,7.32434446 6.673932,7.32434446 M 86.59218,-2.2117997 c 0.235462,-2.0071983 1.476452,-4.193891 3.956502,-4.193891 2.067024,0 3.101504,1.8026197 3.101504,3.5434795 0,0.4149478 -0.177557,0.6504115 -0.67936,0.6504115 z m 16.44745,9.6268292 c 2.9529,0 5.1087,-1.97825 5.1087,-4.3405682 0,-5.286261 -7.44207,-3.86964593 -7.44207,-7.2934593 0,-1.5073333 1.15221,-2.2754689 2.92395,-2.2754689 1.97825,0 2.86411,0.9746462 3.01273,2.8660469 l 1.09237,0 c -0.0888,-1.2699375 -0.11773,-2.0380783 -0.0598,-3.3080158 -0.88587,-0.3551199 -2.42022,-0.7681407 -3.92754,-0.7681407 -2.86412,0 -4.990975,1.5362764 -4.990975,3.8985942 0,5.3441676 7.413115,3.54347949 7.413115,7.2336366 0,1.6540053 -1.29888,2.6884846 -3.1594,2.6884846 -2.51093,0 -3.130455,-1.1522086 -3.396799,-3.2481831 l -1.092375,0 c 0.08878,1.3876672 0.148607,2.4800475 0.08878,3.8677143 1.181159,0.3840678 2.597784,0.6793594 4.429354,0.6793594 m 14.55797,0 c 2.12686,0 3.98738,-0.914818 4.54708,-1.8315676 L 122.0559,4.846201 c -0.94377,0.4728492 -2.21371,0.8260418 -3.89667,0.8260418 -3.30801,0 -4.90219,-2.6576094 -4.90219,-5.84596425 0,-0.26634368 0,-0.56163014 0.029,-0.85692175 l 9.53805,0 c 0.0598,-0.3840678 0.0598,-0.6793594 0.0598,-1.0634272 0,-2.8641201 -1.77174,-5.6105061 -5.43294,-5.6105061 -3.83878,0 -6.52726,3.3080161 -6.52726,7.79526154 0,4.51812576 2.33337,7.32434446 6.67393,7.32434446 m -4.22287,-9.6268292 c 0.23738,-2.0071983 1.47645,-4.193891 3.95649,-4.193891 2.06703,0 3.10151,1.8026197 3.10151,3.5434795 0,0.4149478 -0.17756,0.6504115 -0.67936,0.6504115 z m 15.14856,9.6268292 c 1.80261,0 3.39679,-1.1213282 3.92754,-2.00913 l 0.0598,0 c 0,1.2120413 0.79709,2.00913 2.15581,2.00913 0.85499,0 1.74085,-0.2065102 2.24266,-0.5326771 l 0,-0.8260418 c -1.80069,0 -2.33144,-0.4130208 -2.33144,-1.8605159 0,-2.6576094 0.11773,-4.90219837 0.11773,-7.2046883 0,-2.8641149 -1.65401,-4.6956829 -4.99098,-4.6956829 -1.62313,0 -3.33696,0.856917 -4.04527,1.6829587 l 0.14861,0.8569166 c 0.91481,-0.5017971 2.0072,-0.7970887 3.36592,-0.7970887 2.30248,0 3.30608,1.2101096 3.30608,3.4836465 l 0,1.71383874 c -0.44197,-0.030882 -1.18116,-0.030882 -1.59418,-0.030882 -3.77894,0 -6.23003,1.77173975 -6.23003,4.54900526 0,2.1558128 1.59418,3.6612088 3.86772,3.6612088 m 0.79708,-1.7119067 c -1.44557,0 -2.42021,-0.8858697 -2.42021,-2.3333699 0,-1.8026197 1.35678,-2.89499482 4.39846,-2.89499482 0.32617,0 0.82797,0 1.15221,0.030882 -0.029,0.61952642 -0.0888,2.83323492 -0.0888,3.89666222 -0.59058,0.6793594 -1.68296,1.3008226 -3.04168,1.3008226 m 9.95107,1.3567872 c 0.7392,-0.028953 1.86052,-0.1177293 3.01273,-0.1177293 1.12133,0 2.71744,0.088781 3.4547,0.1177293 l 0,-0.826037 -1.35872,-0.148614 c -0.64848,-0.088776 -0.97465,-0.2952869 -0.97465,-2.3623182 l 0,-8.3568918 c 0.91675,-0.7372604 2.09791,-1.1213282 3.13046,-1.1213282 0.53268,0 1.26994,0.088781 1.62506,0.2663385 l 0.23546,-2.0380783 c -0.35319,-0.088776 -0.73726,-0.1775575 -1.26994,-0.1775575 -1.21011,0 -2.98185,1.0344793 -3.72104,2.0670266 l 0,-2.2156359 c -1.47645,0.6504064 -2.56882,0.9765779 -4.10317,1.4185472 l 0,0.7083073 c 1.91841,0.3840726 1.91841,0.7391925 1.91841,2.2445889 l 0,7.2046832 c 0,2.0670313 -0.29529,2.2445889 -0.97465,2.3623182 l -0.97465,0.148614 z m 17.15769,0.3551195 c 2.18476,0 3.83877,-1.003599 4.36952,-1.889469 l -0.14668,-0.7681404 c -0.88587,0.5905832 -2.09791,0.9148227 -3.42575,0.9148227 -3.07063,0 -5.22644,-2.0959793 -5.22644,-5.87684422 0,-3.92754728 2.09598,-6.23003718 4.60691,-6.23003718 2.09598,0 2.77534,1.1213282 2.86412,2.8062186 l 1.12133,0 c 0,-0.974651 0.029,-2.3931978 0.11773,-3.3678488 -0.97465,-0.3531878 -2.36232,-0.7083077 -3.92755,-0.7083077 -3.86772,0 -7.08695,3.3967971 -7.08695,7.79526154 0,4.48917746 2.51093,7.32434446 6.73376,7.32434446 M 163.24977,7.05991 c 0.73918,-0.028953 1.86051,-0.086849 3.01272,-0.086849 1.12133,0 2.33144,0.057901 3.07063,0.086849 l 0,-0.826037 -0.97465,-0.148614 c -0.6504,-0.1177293 -0.97465,-0.2952869 -0.97465,-2.3623182 l 0,-8.5325221 c 0.76814,-0.5037291 2.09598,-1.1522086 3.42575,-1.1522086 2.50899,0 3.10151,1.387672 3.10151,3.6322557 l 0,6.052475 c 0,2.0670313 -0.29722,2.2445889 -0.97658,2.3623182 l -0.97272,0.148614 0,0.826037 c 0.73726,-0.028953 1.85859,-0.086849 3.0108,-0.086849 1.12326,0 2.33336,0.057901 3.07255,0.086849 l 0,-0.826037 -0.97465,-0.148614 c -0.6504,-0.1177293 -0.97464,-0.2952869 -0.97464,-2.3623182 l 0,-6.3767145 c 0,-2.9837762 -1.00553,-5.0508028 -4.48918,-5.0508028 -1.56523,0 -3.24819,1.0035989 -4.22284,1.920349 l 0,-8.0616055 c -1.47645,0.737261 -2.56882,1.150282 -4.10511,1.594178 l 0,0.708312 c 1.92035,0.384068 1.92035,0.739188 1.92035,2.244589 l 0,13.0216948 c 0,2.0670313 -0.29529,2.2445885 -0.97465,2.3623178 l -0.97464,0.1486144 z m 0,0"
         style="fill:#ffffff;fill-opacity:1;fill-rule:nonzero;stroke:none" />
      <path
         inkscape:connector-curvature="0"
         id="path229"
         d="m 81.838574,-14.820483 c 2.09212,0 3.952638,-0.331958 5.579626,-0.930259 l 0,-4.419694 c -1.194669,0.49987 -3.055187,0.997808 -5.081687,0.997808 -2.657605,0 -3.288718,-0.997808 -3.389075,-2.790779 l 9.601742,0 c 0.06562,-0.598296 0.09843,-1.163789 0.09843,-1.760159 0,-4.218975 -1.825778,-8.040369 -7.640861,-8.040369 -5.579626,0 -8.204424,4.085806 -8.204424,8.437951 0,4.983257 2.491629,8.505501 9.036251,8.505501 M 79.047795,-25.1865 c 0.06562,-1.161863 0.563562,-2.35846 1.99369,-2.35846 1.262221,0 1.792971,1.096239 1.792971,2.159666 l 0,0.198794 z m 17.572637,10.366017 c 2.227216,0 3.555058,-0.86464 4.485318,-1.561366 l 0,1.295027 5.81509,0 0,-16.410774 -5.98107,0 0,11.195917 c -0.56356,0.430393 -1.262218,0.862712 -1.993689,0.862712 -1.194669,0 -1.792972,-0.53075 -1.792972,-2.026497 l 0,-10.032132 -6.013873,0 0,10.929579 c 0,3.288717 1.430131,5.747534 5.481196,5.747534 m 13.687548,-0.266339 5.98106,0 0,-10.697979 c 0.8299,-0.430393 2.25811,-0.829901 3.58787,-0.829901 0.86271,0 1.39539,0.100363 1.82578,0.198788 l 0,-5.182045 c -0.29915,-0.09843 -0.66392,-0.165976 -1.32784,-0.165976 -1.49575,0 -3.02431,0.631108 -4.21898,1.993685 l 0,-1.727346 -5.84789,0 z m 17.2426,0.266339 c 2.2253,0 3.65349,-1.030616 4.2846,-2.061236 0.63111,1.296959 1.82771,2.061236 3.88701,2.061236 1.56138,0 2.29285,-0.366696 2.75798,-0.665847 l 0,-3.686298 c -0.16598,0.03281 -0.39952,0.06562 -0.53268,0.06562 -0.66392,0 -0.92834,-0.397576 -0.92834,-1.161858 l 0,-5.116427 c 0,-4.352144 -2.15966,-6.378641 -7.47487,-6.378641 -2.29285,0 -4.28653,0.399508 -5.48313,0.829896 l 0,4.4197 c 0.965,-0.299151 2.85833,-0.698664 4.4525,-0.698664 1.7949,0 2.52445,0.631113 2.52445,1.993691 l 0,0.53075 c -0.23161,0 -0.49795,-0.03281 -1.06344,-0.03281 -4.48339,0 -7.73929,1.26222 -7.73929,5.016069 0,3.421887 2.35846,4.884821 5.31521,4.884821 m 2.0265,-4.020182 c -0.93026,0 -1.52856,-0.29915 -1.52856,-1.229413 0,-1.096239 0.5983,-1.528559 2.26003,-1.528559 0.2316,0 0.39758,0 0.72955,0.03474 l 0,2.092116 c -0.33197,0.29915 -0.72955,0.631112 -1.46102,0.631112 m 19.20156,4.02018 c 1.79296,0 3.22309,-0.366696 4.25178,-0.764276 l 0,-4.651295 c -1.12904,0.631108 -2.09212,0.897446 -3.78665,0.897446 -1.96088,0 -3.12274,-1.329766 -3.12274,-3.788588 0,-2.989566 1.26222,-4.184236 3.08993,-4.184236 1.49381,0 2.55725,0.331962 3.55312,0.696731 l 0,-4.550937 c -0.96307,-0.266339 -2.15774,-0.598296 -4.11861,-0.598296 -5.78035,0 -8.76992,3.688225 -8.76992,8.636738 0,5.149239 2.72323,8.306713 8.90309,8.306713"
         style="fill:#ffffff;fill-opacity:1;fill-rule:nonzero;stroke:none" />
    </g>
  </g>
</svg>
