<?xml version="1.0" encoding="UTF-8" standalone="no"?>
<!-- Generator: Adobe Illustrator 17.0.1, SVG Export Plug-In . SVG Version: 6.00 Build 0)  -->

<svg
   xmlns:dc="http://purl.org/dc/elements/1.1/"
   xmlns:cc="http://creativecommons.org/ns#"
   xmlns:rdf="http://www.w3.org/1999/02/22-rdf-syntax-ns#"
   xmlns:svg="http://www.w3.org/2000/svg"
   xmlns="http://www.w3.org/2000/svg"
   xmlns:sodipodi="http://sodipodi.sourceforge.net/DTD/sodipodi-0.dtd"
   xmlns:inkscape="http://www.inkscape.org/namespaces/inkscape"
   version="1.1"
   id="Layer_1"
   x="0px"
   y="0px"
   width="185px"
   height="188px"
   viewBox="0 0 185 188"
   enable-background="new 0 0 185 188"
   xml:space="preserve"
   inkscape:version="0.91 r13725"
   sodipodi:docname="logos.svg"><metadata
     id="metadata3987"><rdf:RDF><cc:Work
         rdf:about=""><dc:format>image/svg+xml</dc:format><dc:type
           rdf:resource="http://purl.org/dc/dcmitype/StillImage" /><dc:title></dc:title></cc:Work></rdf:RDF></metadata><defs
     id="defs3985" /><sodipodi:namedview
     pagecolor="#ffffff"
     bordercolor="#666666"
     borderopacity="1"
     objecttolerance="10"
     gridtolerance="10"
     guidetolerance="10"
     inkscape:pageopacity="0"
     inkscape:pageshadow="2"
     inkscape:window-width="1918"
     inkscape:window-height="1195"
     id="namedview3983"
     showgrid="false"
     inkscape:zoom="2.3171816"
     inkscape:cx="-64.99342"
     inkscape:cy="103.13326"
     inkscape:window-x="0"
     inkscape:window-y="0"
     inkscape:window-maximized="0"
     inkscape:current-layer="Layer_1" /><g
     id="g3345"><g
       inkscape:export-ydpi="71.730446"
       inkscape:export-xdpi="71.730446"
       id="g3646"
       transform="matrix(0.66244493,0,0,0.66244488,-296.70588,-155.21976)"><path
         inkscape:connector-curvature="0"
         id="path219"
         d="m 482.95703,325.19531 c 1.49609,-0.0625 3.76563,-0.24219 6.09766,-0.24219 2.26953,0 5.49609,0.17969 6.99218,0.24219 l 0,-1.67578 -2.75,-0.29687 c -1.3164,-0.17969 -1.97265,-0.59766 -1.97265,-4.78125 l 0,-16.91407 c 1.85156,-1.49609 4.24609,-2.27343 6.33594,-2.27343 1.07812,0 2.57031,0.17968 3.28906,0.53906 l 0.47656,-4.125 c -0.71875,-0.17969 -1.49609,-0.35938 -2.57031,-0.35938 -2.44922,0 -6.03516,2.09375 -7.53125,4.1836 l 0,-4.48047 c -2.98828,1.3125 -5.19922,1.97265 -8.3086,2.86719 l 0,1.4375 c 3.88672,0.77343 3.88672,1.49218 3.88672,4.53906 l 0,14.58594 c 0,4.18359 -0.59765,4.54296 -1.97265,4.78125 l -1.97266,0.29687 z m 34.60547,0.71485 c 4.30469,0 8.06641,-1.85157 9.20312,-3.70313 l -0.17968,-1.49609 c -1.91016,0.95703 -4.48047,1.67187 -7.88672,1.67187 -6.69531,0 -9.92188,-5.3789 -9.92188,-11.83203 0,-0.53906 0,-1.13672 0.0586,-1.73437 l 19.30468,0 c 0.1211,-0.77735 0.1211,-1.375 0.1211,-2.15235 0,-5.79687 -3.58594,-11.35547 -11,-11.35547 -7.76953,0 -13.20703,6.69532 -13.20703,15.78125 0,9.14453 4.72265,14.82032 13.50781,14.82032 m -8.54688,-19.48438 c 0.47657,-4.0625 2.98829,-8.48437 8.00782,-8.48437 4.18359,0 6.27734,3.64453 6.27734,7.17187 0,0.83594 -0.35937,1.3125 -1.375,1.3125 z m 33.28907,19.48438 c 5.97656,0 10.33984,-4.00391 10.33984,-8.78516 0,-10.69922 -15.0625,-7.82813 -15.0625,-14.76172 0,-3.04687 2.33203,-4.60156 5.91797,-4.60156 4.00391,0 5.79687,1.97265 6.09766,5.79687 l 2.21093,0 c -0.17968,-2.57031 -0.23828,-4.125 -0.12109,-6.69531 -1.79297,-0.71484 -4.89844,-1.55469 -7.94922,-1.55469 -5.79687,0 -10.10156,3.10938 -10.10156,7.89063 0,10.82031 15.0039,7.17187 15.0039,14.64453 0,3.34766 -2.6289,5.4375 -6.39453,5.4375 -5.08203,0 -6.33593,-2.33203 -6.875,-6.57422 l -2.21093,0 c 0.17968,2.80859 0.30078,5.01953 0.17968,7.82813 2.39063,0.77734 5.25782,1.375 8.96485,1.375 m 29.46484,0 c 4.30469,0 8.07031,-1.85157 9.20313,-3.70313 l -0.17969,-1.49609 c -1.91016,0.95703 -4.48047,1.67187 -7.88672,1.67187 -6.69531,0 -9.92188,-5.3789 -9.92188,-11.83203 0,-0.53906 0,-1.13672 0.0586,-1.73437 l 19.30469,0 c 0.12109,-0.77735 0.12109,-1.375 0.12109,-2.15235 0,-5.79687 -3.58594,-11.35547 -10.99609,-11.35547 -7.76954,0 -13.21094,6.69532 -13.21094,15.78125 0,9.14453 4.72265,14.82032 13.50781,14.82032 m -8.54687,-19.48438 c 0.48046,-4.0625 2.98828,-8.48437 8.00781,-8.48437 4.18359,0 6.27734,3.64453 6.27734,7.17187 0,0.83594 -0.35937,1.3125 -1.375,1.3125 z m 30.66015,19.48438 c 3.64844,0 6.875,-2.26954 7.94922,-4.0625 l 0.12109,0 c 0,2.44921 1.61329,4.0625 4.36329,4.0625 1.73046,0 3.52343,-0.41797 4.53906,-1.07422 l 0,-1.67578 c -3.64453,0 -4.71875,-0.83594 -4.71875,-3.76172 0,-5.37891 0.23828,-9.92578 0.23828,-14.58594 0,-5.79688 -3.34766,-9.50391 -10.10156,-9.50391 -3.28516,0 -6.75391,1.73438 -8.1875,3.40625 l 0.30078,1.73438 c 1.85156,-1.01563 4.0625,-1.61328 6.8125,-1.61328 4.66015,0 6.6914,2.44922 6.6914,7.05078 l 0,3.46875 c -0.89453,-0.0586 -2.39062,-0.0586 -3.22656,-0.0586 -7.64844,0 -12.60937,3.58594 -12.60937,9.20313 0,4.36328 3.22656,7.41016 7.82812,7.41016 m 1.61328,-3.46485 c -2.92578,0 -4.89843,-1.79297 -4.89843,-4.72265 0,-3.64454 2.74609,-5.85547 8.90234,-5.85547 0.66016,0 1.67578,0 2.33203,0.0586 -0.0586,1.25391 -0.17969,5.73828 -0.17969,7.89063 -1.19531,1.375 -3.40625,2.6289 -6.15625,2.6289 m 20.14063,2.75 c 1.49609,-0.0625 3.76562,-0.24219 6.09765,-0.24219 2.26954,0 5.5,0.17969 6.99219,0.24219 l 0,-1.67578 -2.75,-0.29687 c -1.3125,-0.17969 -1.97265,-0.59766 -1.97265,-4.78125 l 0,-16.91407 c 1.85546,-1.49609 4.24609,-2.27343 6.33593,-2.27343 1.07813,0 2.57032,0.17968 3.28907,0.53906 l 0.47656,-4.125 c -0.71485,-0.17969 -1.49219,-0.35938 -2.57031,-0.35938 -2.44922,0 -6.03516,2.09375 -7.53125,4.1836 l 0,-4.48047 c -2.98829,1.3125 -5.19922,1.97265 -8.30469,2.86719 l 0,1.4375 c 3.88281,0.77343 3.88281,1.49218 3.88281,4.53906 l 0,14.58594 c 0,4.18359 -0.59766,4.54296 -1.97266,4.78125 l -1.97265,0.29687 z m 34.72656,0.71485 c 4.42188,0 7.76953,-2.03125 8.84375,-3.82422 l -0.29687,-1.55469 c -1.79297,1.19531 -4.2461,1.85156 -6.9336,1.85156 -6.21484,0 -10.57812,-4.24219 -10.57812,-11.89062 0,-7.94922 4.24218,-12.61328 9.32422,-12.61328 4.24218,0 5.61718,2.27343 5.79687,5.67968 l 2.26953,0 c 0,-1.97265 0.0586,-4.84375 0.23828,-6.8125 -1.97265,-0.71875 -4.78125,-1.4375 -7.94922,-1.4375 -7.82812,0 -14.34375,6.875 -14.34375,15.78125 0,9.08203 5.08204,14.82032 13.62891,14.82032 m 13.80469,-0.71485 c 1.49609,-0.0625 3.76562,-0.17969 6.09765,-0.17969 2.26954,0 4.71875,0.11719 6.21485,0.17969 l 0,-1.67578 -1.97266,-0.29687 c -1.3164,-0.23829 -1.97265,-0.59766 -1.97265,-4.78125 l 0,-17.27344 c 1.55468,-1.01563 4.24218,-2.33203 6.93359,-2.33203 5.07812,0 6.27734,2.80859 6.27734,7.35156 l 0,12.25391 c 0,4.18359 -0.60156,4.54296 -1.97656,4.78125 l -1.96875,0.29687 0,1.67578 c 1.49219,-0.0625 3.76172,-0.17969 6.09375,-0.17969 2.27344,0 4.72266,0.11719 6.21875,0.17969 l 0,-1.67578 -1.97266,-0.29687 c -1.3164,-0.23829 -1.97265,-0.59766 -1.97265,-4.78125 l 0,-12.91016 c 0,-6.03906 -2.03516,-10.22266 -9.08594,-10.22266 -3.16797,0 -6.57422,2.03125 -8.54687,3.88672 l 0,-16.3164 c -2.98829,1.49218 -5.19922,2.33203 -8.3086,3.22656 l 0,1.43359 c 3.88672,0.77735 3.88672,1.4961 3.88672,4.54297 l 0,26.35938 c 0,4.18359 -0.59766,4.54296 -1.97266,4.78125 l -1.97265,0.29687 z m 0,0"
         style="fill:#211e1e;fill-opacity:1;fill-rule:nonzero;stroke:none" /><path
         inkscape:connector-curvature="0"
         id="path221"
         d="m 499.39453,280.90625 c 4.23438,0 8,-0.67188 11.29297,-1.88281 l 0,-8.94141 c -2.41797,1.00781 -6.18359,2.01563 -10.28516,2.01563 -5.3789,0 -6.65625,-2.01563 -6.85937,-5.64844 l 19.43359,0 c 0.13281,-1.21094 0.19922,-2.35156 0.19922,-3.5625 0,-8.53906 -3.69531,-16.27344 -15.46484,-16.27344 -11.29297,0 -16.60547,8.27344 -16.60547,17.07813 0,10.08593 5.04297,17.21484 18.28906,17.21484 m -5.64844,-20.97656 c 0.13282,-2.35547 1.14063,-4.77735 4.03516,-4.77735 2.55469,0 3.62891,2.21875 3.62891,4.3711 l 0,0.40625 z m 35.56641,20.97656 c 4.50781,0 7.19531,-1.75 9.07812,-3.16016 l 0,2.6211 11.76954,0 0,-33.21485 -12.10547,0 0,22.66016 c -1.14063,0.875 -2.55469,1.74609 -4.03516,1.74609 -2.41797,0 -3.62891,-1.07422 -3.62891,-4.10156 l 0,-20.30469 -12.17187,0 0,22.1211 c 0,6.65625 2.89453,11.63281 11.09375,11.63281 m 27.70312,-0.53906 12.10547,0 0,-21.64844 c 1.67969,-0.875 4.57032,-1.68359 7.26172,-1.68359 1.7461,0 2.82422,0.20312 3.69531,0.40625 l 0,-10.49219 c -0.60546,-0.19922 -1.34375,-0.33594 -2.6875,-0.33594 -3.02734,0 -6.12109,1.27734 -8.53906,4.03516 l 0,-3.4961 -11.83594,0 z m 34.89844,0.53906 c 4.50391,0 7.39453,-2.08594 8.67188,-4.16797 1.27734,2.62109 3.69922,4.16797 7.86718,4.16797 3.16016,0 4.64063,-0.74219 5.58204,-1.34375 l 0,-7.46484 c -0.33594,0.0664 -0.8086,0.13281 -1.07813,0.13281 -1.34375,0 -1.87891,-0.80469 -1.87891,-2.35156 l 0,-10.35547 c 0,-8.8086 -4.37109,-12.91016 -15.1289,-12.91016 -4.64063,0 -8.67578,0.80859 -11.09766,1.68359 l 0,8.94141 c 1.95313,-0.60547 5.78516,-1.41406 9.01172,-1.41406 3.63281,0 5.10938,1.28125 5.10938,4.03515 l 0,1.07813 c -0.46875,0 -1.00782,-0.0703 -2.15235,-0.0703 -9.07422,0 -15.66406,2.55859 -15.66406,10.15625 0,6.92578 4.77344,9.88281 10.75781,9.88281 m 4.10156,-8.13672 c -1.88281,0 -3.09375,-0.60547 -3.09375,-2.48828 0,-2.21875 1.21094,-3.09375 4.57422,-3.09375 0.46875,0 0.80469,0 1.47657,0.0703 l 0,4.23438 c -0.67188,0.60547 -1.47657,1.27734 -2.95704,1.27734 m 38.86329,8.13672 c 3.6289,0 6.52343,-0.74219 8.60546,-1.54688 l 0,-9.41406 c -2.28515,1.27735 -4.23437,1.81641 -7.66406,1.81641 -3.96875,0 -6.32031,-2.69141 -6.32031,-7.66406 0,-6.05079 2.55469,-8.47266 6.25391,-8.47266 3.02343,0 5.17578,0.67187 7.1914,1.41016 l 0,-9.21094 c -1.94922,-0.53906 -4.36719,-1.21094 -8.33594,-1.21094 -11.69921,0 -17.75,7.46484 -17.75,17.48438 0,10.42187 5.51172,16.80859 18.01954,16.80859"
         style="fill:#211e1e;fill-opacity:1;fill-rule:nonzero;stroke:none" /></g></g><g
     transform="matrix(0.66244493,0,0,0.66244488,-296.70588,-185.6925)"
     id="g3650"
     inkscape:export-xdpi="71.730446"
     inkscape:export-ydpi="71.730446"><path
       style="fill:#6e757d;fill-opacity:1;fill-rule:nonzero;stroke:none"
       d="m 482.95703,461.25781 c 1.49609,-0.0625 3.76563,-0.24219 6.09766,-0.24219 2.26953,0 5.49609,0.17969 6.99218,0.24219 l 0,-1.67578 -2.75,-0.29687 c -1.3164,-0.17969 -1.97265,-0.59766 -1.97265,-4.78125 l 0,-16.91407 c 1.85156,-1.49609 4.24609,-2.27343 6.33594,-2.27343 1.07812,0 2.57031,0.17968 3.28906,0.53906 l 0.47656,-4.125 c -0.71875,-0.17969 -1.49609,-0.35938 -2.57031,-0.35938 -2.44922,0 -6.03516,2.09375 -7.53125,4.1836 l 0,-4.48047 c -2.98828,1.3125 -5.19922,1.97265 -8.3086,2.86719 l 0,1.4375 c 3.88672,0.77734 3.88672,1.49218 3.88672,4.53906 l 0,14.58594 c 0,4.18359 -0.59765,4.54296 -1.97265,4.78125 l -1.97266,0.29687 z m 34.60547,0.71485 c 4.30469,0 8.06641,-1.85157 9.20312,-3.70313 l -0.17968,-1.49609 c -1.91016,0.95703 -4.48047,1.67578 -7.88672,1.67578 -6.69531,0 -9.92188,-5.37891 -9.92188,-11.83594 0,-0.53906 0,-1.13672 0.0586,-1.73437 l 19.30468,0 c 0.1211,-0.77735 0.1211,-1.375 0.1211,-2.15235 0,-5.79687 -3.58594,-11.35547 -11,-11.35547 -7.76953,0 -13.20703,6.69532 -13.20703,15.78125 0,9.14453 4.72265,14.82032 13.50781,14.82032 m -8.54688,-19.48438 c 0.47657,-4.0625 2.98829,-8.48437 8.00782,-8.48437 4.18359,0 6.27734,3.64453 6.27734,7.17187 0,0.83594 -0.35937,1.3125 -1.375,1.3125 z m 33.28907,19.48438 c 5.97656,0 10.33984,-4.00391 10.33984,-8.78516 0,-10.69922 -15.0625,-7.82813 -15.0625,-14.76172 0,-3.04687 2.33203,-4.60156 5.91797,-4.60156 4.00391,0 5.79687,1.97265 6.09766,5.79687 l 2.21093,0 c -0.17968,-2.57031 -0.23828,-4.125 -0.12109,-6.69531 -1.79297,-0.71484 -4.89844,-1.55469 -7.94922,-1.55469 -5.79687,0 -10.10156,3.10938 -10.10156,7.89063 0,10.82031 15.0039,7.17187 15.0039,14.64453 0,3.34766 -2.6289,5.4375 -6.39453,5.4375 -5.08203,0 -6.33593,-2.33203 -6.875,-6.57422 l -2.21093,0 c 0.17968,2.80859 0.30078,5.01953 0.17968,7.82813 2.39063,0.77734 5.25782,1.375 8.96485,1.375 m 29.46484,0 c 4.30469,0 8.07031,-1.85157 9.20313,-3.70313 l -0.17969,-1.49609 c -1.91016,0.95703 -4.48047,1.67578 -7.88672,1.67578 -6.69531,0 -9.92188,-5.37891 -9.92188,-11.83594 0,-0.53906 0,-1.13672 0.0586,-1.73437 l 19.30469,0 c 0.12109,-0.77735 0.12109,-1.375 0.12109,-2.15235 0,-5.79687 -3.58594,-11.35547 -10.99609,-11.35547 -7.76954,0 -13.21094,6.69532 -13.21094,15.78125 0,9.14453 4.72265,14.82032 13.50781,14.82032 m -8.54687,-19.48438 c 0.48046,-4.0625 2.98828,-8.48437 8.00781,-8.48437 4.18359,0 6.27734,3.64453 6.27734,7.17187 0,0.83594 -0.35937,1.3125 -1.375,1.3125 z m 30.66015,19.48438 c 3.64844,0 6.875,-2.26954 7.94922,-4.0625 l 0.12109,0 c 0,2.44921 1.61329,4.0625 4.36329,4.0625 1.73046,0 3.52343,-0.41797 4.53906,-1.07422 l 0,-1.67578 c -3.64453,0 -4.71875,-0.83594 -4.71875,-3.76172 0,-5.37891 0.23828,-9.92188 0.23828,-14.58594 0,-5.79688 -3.34766,-9.50391 -10.10156,-9.50391 -3.28516,0 -6.75391,1.73438 -8.1875,3.41016 l 0.30078,1.73047 c 1.85156,-1.01563 4.0625,-1.61328 6.8125,-1.61328 4.66015,0 6.6914,2.44922 6.6914,7.05468 l 0,3.46485 c -0.89453,-0.0586 -2.39062,-0.0586 -3.22656,-0.0586 -7.64844,0 -12.60937,3.58594 -12.60937,9.20313 0,4.36328 3.22656,7.41016 7.82812,7.41016 m 1.61328,-3.46485 c -2.92578,0 -4.89843,-1.79297 -4.89843,-4.72265 0,-3.64454 2.74609,-5.85547 8.90234,-5.85547 0.66016,0 1.67578,0 2.33203,0.0586 -0.0586,1.25391 -0.17969,5.73828 -0.17969,7.89063 -1.19531,1.375 -3.40625,2.6289 -6.15625,2.6289 m 20.14063,2.75 c 1.49609,-0.0625 3.76562,-0.24219 6.09765,-0.24219 2.26954,0 5.5,0.17969 6.99219,0.24219 l 0,-1.67578 -2.75,-0.29687 c -1.3125,-0.17969 -1.97265,-0.59766 -1.97265,-4.78125 l 0,-16.91407 c 1.85546,-1.49609 4.24609,-2.27343 6.33593,-2.27343 1.07813,0 2.57032,0.17968 3.28907,0.53906 l 0.47656,-4.125 c -0.71485,-0.17969 -1.49219,-0.35938 -2.57031,-0.35938 -2.44922,0 -6.03516,2.09375 -7.53125,4.1836 l 0,-4.48047 c -2.98829,1.3125 -5.19922,1.97265 -8.30469,2.86719 l 0,1.4375 c 3.88281,0.77734 3.88281,1.49218 3.88281,4.53906 l 0,14.58594 c 0,4.18359 -0.59766,4.54296 -1.97266,4.78125 l -1.97265,0.29687 z m 34.72656,0.71485 c 4.42188,0 7.76953,-2.03125 8.84375,-3.82422 l -0.29687,-1.55469 c -1.79297,1.19531 -4.2461,1.85547 -6.9336,1.85547 -6.21484,0 -10.57812,-4.2461 -10.57812,-11.89453 0,-7.94922 4.24218,-12.61328 9.32422,-12.61328 4.24218,0 5.61718,2.27343 5.79687,5.67968 l 2.26953,0 c 0,-1.97265 0.0586,-4.83984 0.23828,-6.8125 -1.97265,-0.71875 -4.78125,-1.4375 -7.94922,-1.4375 -7.82812,0 -14.34375,6.875 -14.34375,15.78125 0,9.08594 5.08204,14.82032 13.62891,14.82032 m 13.80469,-0.71485 c 1.49609,-0.0625 3.76562,-0.17969 6.09765,-0.17969 2.26954,0 4.71875,0.11719 6.21485,0.17969 l 0,-1.67578 -1.97266,-0.29687 c -1.3164,-0.23829 -1.97265,-0.59766 -1.97265,-4.78125 l 0,-17.27344 c 1.55468,-1.01563 4.24218,-2.33203 6.93359,-2.33203 5.07812,0 6.27734,2.80859 6.27734,7.35156 l 0,12.25391 c 0,4.18359 -0.60156,4.54296 -1.97656,4.78125 l -1.96875,0.29687 0,1.67578 c 1.49219,-0.0625 3.76172,-0.17969 6.09375,-0.17969 2.27344,0 4.72266,0.11719 6.21875,0.17969 l 0,-1.67578 -1.97266,-0.29687 c -1.3164,-0.23829 -1.97265,-0.59766 -1.97265,-4.78125 l 0,-12.91016 c 0,-6.03906 -2.03516,-10.22266 -9.08594,-10.22266 -3.16797,0 -6.57422,2.03516 -8.54687,3.88672 l 0,-16.3164 c -2.98829,1.49218 -5.19922,2.33203 -8.3086,3.22656 l 0,1.43359 c 3.88672,0.77735 3.88672,1.4961 3.88672,4.54297 l 0,26.35938 c 0,4.18359 -0.59766,4.54296 -1.97266,4.78125 l -1.97265,0.29687 z m 0,0"
       id="path223"
       inkscape:connector-curvature="0" /><path
       style="fill:#6e757d;fill-opacity:1;fill-rule:nonzero;stroke:none"
       d="m 499.39453,416.96875 c 4.23438,0 8,-0.67188 11.29297,-1.88281 l 0,-8.94141 c -2.41797,1.00781 -6.18359,2.01563 -10.28516,2.01563 -5.3789,0 -6.65625,-2.01563 -6.85937,-5.64844 l 19.43359,0 c 0.13281,-1.21094 0.19922,-2.35156 0.19922,-3.5625 0,-8.53906 -3.69531,-16.27344 -15.46484,-16.27344 -11.29297,0 -16.60547,8.27344 -16.60547,17.08203 0,10.08594 5.04297,17.21094 18.28906,17.21094 m -5.64844,-20.97656 c 0.13282,-2.35547 1.14063,-4.77344 4.03516,-4.77344 2.55469,0 3.62891,2.21875 3.62891,4.36719 l 0,0.40625 z m 35.56641,20.97656 c 4.50781,0 7.19531,-1.74609 9.07812,-3.16016 l 0,2.6211 11.76954,0 0,-33.21485 -12.10547,0 0,22.66016 c -1.14063,0.875 -2.55469,1.74609 -4.03516,1.74609 -2.41797,0 -3.62891,-1.07422 -3.62891,-4.10156 l 0,-20.30469 -12.17187,0 0,22.1211 c 0,6.65625 2.89453,11.63281 11.09375,11.63281 m 27.70312,-0.53906 12.10547,0 0,-21.64844 c 1.67969,-0.875 4.57032,-1.68359 7.26172,-1.68359 1.7461,0 2.82422,0.20312 3.69531,0.40625 l 0,-10.48829 c -0.60546,-0.20312 -1.34375,-0.33984 -2.6875,-0.33984 -3.02734,0 -6.12109,1.27734 -8.53906,4.03516 l 0,-3.4961 -11.83594,0 z m 34.89844,0.53906 c 4.50391,0 7.39453,-2.08203 8.67188,-4.16797 1.27734,2.62109 3.69922,4.16797 7.86718,4.16797 3.16016,0 4.64063,-0.73828 5.58204,-1.34375 l 0,-7.46484 c -0.33594,0.0664 -0.8086,0.13281 -1.07813,0.13281 -1.34375,0 -1.87891,-0.80469 -1.87891,-2.35156 l 0,-10.35547 c 0,-8.8086 -4.37109,-12.91016 -15.1289,-12.91016 -4.64063,0 -8.67578,0.80859 -11.09766,1.68359 l 0,8.94141 c 1.95313,-0.60547 5.78516,-1.41016 9.01172,-1.41016 3.63281,0 5.10938,1.27735 5.10938,4.03125 l 0,1.07813 c -0.46875,0 -1.00782,-0.0664 -2.15235,-0.0664 -9.07422,0 -15.66406,2.55469 -15.66406,10.15235 0,6.92578 4.77344,9.88281 10.75781,9.88281 m 4.10156,-8.13672 c -1.88281,0 -3.09375,-0.60547 -3.09375,-2.48828 0,-2.21875 1.21094,-3.09375 4.57422,-3.09375 0.46875,0 0.80469,0 1.47657,0.0703 l 0,4.23438 c -0.67188,0.60547 -1.47657,1.27734 -2.95704,1.27734 m 38.86329,8.13672 c 3.6289,0 6.52343,-0.73828 8.60546,-1.54688 l 0,-9.41406 c -2.28515,1.27735 -4.23437,1.81641 -7.66406,1.81641 -3.96875,0 -6.32031,-2.6875 -6.32031,-7.66406 0,-6.05079 2.55469,-8.47266 6.25391,-8.47266 3.02343,0 5.17578,0.67187 7.1914,1.41016 l 0,-9.21094 c -1.94922,-0.53516 -4.36719,-1.21094 -8.33594,-1.21094 -11.69921,0 -17.75,7.46484 -17.75,17.48438 0,10.42187 5.51172,16.80859 18.01954,16.80859"
       id="path225"
       inkscape:connector-curvature="0" /></g><g
     transform="matrix(1.25,0,0,1.25,-856.41871,-405.54559)"
     id="g3654"
     inkscape:export-xdpi="72"
     inkscape:export-ydpi="72"><path
       style="fill:#211e1e;fill-opacity:1;fill-rule:nonzero;stroke:none"
       d="m 458.29687,651.47266 273.96094,0 0,-126.5625 -273.96094,0 z m 0,0"
       id="path217"
       inkscape:connector-curvature="0" /><path
       style="fill:#ffffff;fill-opacity:1;fill-rule:nonzero;stroke:none"
       d="m 482.95703,627.08203 c 1.49609,-0.0586 3.76563,-0.23828 6.09766,-0.23828 2.26953,0 5.49609,0.17969 6.99218,0.23828 l 0,-1.67187 -2.75,-0.30079 c -1.3164,-0.17968 -1.97265,-0.59765 -1.97265,-4.78125 l 0,-16.91406 c 1.85156,-1.49219 4.24609,-2.26953 6.33594,-2.26953 1.07812,0 2.57031,0.17969 3.28906,0.53906 l 0.47656,-4.125 c -0.71875,-0.17968 -1.49609,-0.35937 -2.57031,-0.35937 -2.44922,0 -6.03516,2.09375 -7.53125,4.18359 l 0,-4.48437 c -2.98828,1.3164 -5.19922,1.97656 -8.3086,2.87109 l 0,1.43359 c 3.88672,0.77735 3.88672,1.4961 3.88672,4.54297 l 0,14.58203 c 0,4.1836 -0.59765,4.54297 -1.97265,4.78125 l -1.97266,0.30079 z m 34.60547,0.71875 c 4.30469,0 8.06641,-1.85156 9.20312,-3.70703 l -0.17968,-1.49219 c -1.91016,0.95703 -4.48047,1.67188 -7.88672,1.67188 -6.69531,0 -9.92188,-5.37891 -9.92188,-11.83203 0,-0.53907 0,-1.13672 0.0586,-1.73438 l 19.30468,0 c 0.1211,-0.77734 0.1211,-1.375 0.1211,-2.15234 0,-5.79688 -3.58594,-11.35547 -11,-11.35547 -7.76953,0 -13.20703,6.69531 -13.20703,15.77734 0,9.14453 4.72265,14.82422 13.50781,14.82422 m -8.54688,-19.48437 c 0.47657,-4.0625 2.98829,-8.48829 8.00782,-8.48829 4.18359,0 6.27734,3.64844 6.27734,7.17188 0,0.83984 -0.35937,1.31641 -1.375,1.31641 z m 33.28907,19.48437 c 5.97656,0 10.33984,-4.00391 10.33984,-8.78516 0,-10.69921 -15.0625,-7.83203 -15.0625,-14.76171 0,-3.05079 2.33203,-4.60547 5.91797,-4.60547 4.00391,0 5.79687,1.97265 6.09766,5.80078 l 2.21093,0 c -0.17968,-2.57031 -0.23828,-4.125 -0.12109,-6.69531 -1.79297,-0.71875 -4.89844,-1.55469 -7.94922,-1.55469 -5.79687,0 -10.10156,3.10937 -10.10156,7.89062 0,10.81641 15.0039,7.17188 15.0039,14.64063 0,3.34765 -2.6289,5.4414 -6.39453,5.4414 -5.08203,0 -6.33593,-2.33203 -6.875,-6.57421 l -2.21093,0 c 0.17968,2.80859 0.30078,5.01953 0.17968,7.82812 2.39063,0.77734 5.25782,1.375 8.96485,1.375 m 29.46484,0 c 4.30469,0 8.07031,-1.85156 9.20313,-3.70703 l -0.17969,-1.49219 c -1.91016,0.95703 -4.48047,1.67188 -7.88672,1.67188 -6.69531,0 -9.92188,-5.37891 -9.92188,-11.83203 0,-0.53907 0,-1.13672 0.0586,-1.73438 l 19.30469,0 c 0.12109,-0.77734 0.12109,-1.375 0.12109,-2.15234 0,-5.79688 -3.58594,-11.35547 -10.99609,-11.35547 -7.76954,0 -13.21094,6.69531 -13.21094,15.77734 0,9.14453 4.72265,14.82422 13.50781,14.82422 m -8.54687,-19.48437 c 0.48046,-4.0625 2.98828,-8.48829 8.00781,-8.48829 4.18359,0 6.27734,3.64844 6.27734,7.17188 0,0.83984 -0.35937,1.31641 -1.375,1.31641 z m 30.66015,19.48437 c 3.64844,0 6.875,-2.26953 7.94922,-4.06641 l 0.12109,0 c 0,2.45313 1.61329,4.06641 4.36329,4.06641 1.73046,0 3.52343,-0.41797 4.53906,-1.07812 l 0,-1.67188 c -3.64453,0 -4.71875,-0.83594 -4.71875,-3.76562 0,-5.37891 0.23828,-9.92188 0.23828,-14.58204 0,-5.79687 -3.34766,-9.5039 -10.10156,-9.5039 -3.28516,0 -6.75391,1.73437 -8.1875,3.40625 l 0.30078,1.73437 c 1.85156,-1.01562 4.0625,-1.61328 6.8125,-1.61328 4.66015,0 6.6914,2.44922 6.6914,7.05078 l 0,3.46875 c -0.89453,-0.0625 -2.39062,-0.0625 -3.22656,-0.0625 -7.64844,0 -12.60937,3.58594 -12.60937,9.20703 0,4.36329 3.22656,7.41016 7.82812,7.41016 m 1.61328,-3.46484 c -2.92578,0 -4.89843,-1.79297 -4.89843,-4.72266 0,-3.64844 2.74609,-5.85937 8.90234,-5.85937 0.66016,0 1.67578,0 2.33203,0.0625 -0.0586,1.2539 -0.17969,5.73437 -0.17969,7.88671 -1.19531,1.375 -3.40625,2.63282 -6.15625,2.63282 m 20.14063,2.74609 c 1.49609,-0.0586 3.76562,-0.23828 6.09765,-0.23828 2.26954,0 5.5,0.17969 6.99219,0.23828 l 0,-1.67187 -2.75,-0.30079 c -1.3125,-0.17968 -1.97265,-0.59765 -1.97265,-4.78125 l 0,-16.91406 c 1.85546,-1.49219 4.24609,-2.26953 6.33593,-2.26953 1.07813,0 2.57032,0.17969 3.28907,0.53906 l 0.47656,-4.125 c -0.71485,-0.17968 -1.49219,-0.35937 -2.57031,-0.35937 -2.44922,0 -6.03516,2.09375 -7.53125,4.18359 l 0,-4.48437 c -2.98829,1.3164 -5.19922,1.97656 -8.30469,2.87109 l 0,1.43359 c 3.88281,0.77735 3.88281,1.4961 3.88281,4.54297 l 0,14.58203 c 0,4.1836 -0.59766,4.54297 -1.97266,4.78125 l -1.97265,0.30079 z m 34.72656,0.71875 c 4.42188,0 7.76953,-2.03125 8.84375,-3.82422 l -0.29687,-1.55469 c -1.79297,1.19532 -4.2461,1.85157 -6.9336,1.85157 -6.21484,0 -10.57812,-4.24219 -10.57812,-11.89453 0,-7.94922 4.24218,-12.60938 9.32422,-12.60938 4.24218,0 5.61718,2.26953 5.79687,5.67969 l 2.26953,0 c 0,-1.97266 0.0586,-4.84375 0.23828,-6.81641 -1.97265,-0.71484 -4.78125,-1.43359 -7.94922,-1.43359 -7.82812,0 -14.34375,6.875 -14.34375,15.77734 0,9.08594 5.08204,14.82422 13.62891,14.82422 m 13.80469,-0.71875 c 1.49609,-0.0586 3.76562,-0.17578 6.09765,-0.17578 2.26954,0 4.71875,0.11719 6.21485,0.17578 l 0,-1.67187 -1.97266,-0.30079 c -1.3164,-0.23828 -1.97265,-0.59765 -1.97265,-4.78125 l 0,-17.26953 c 1.55468,-1.01953 4.24218,-2.33203 6.93359,-2.33203 5.07812,0 6.27734,2.8086 6.27734,7.35156 l 0,12.25 c 0,4.1836 -0.60156,4.54297 -1.97656,4.78125 l -1.96875,0.30079 0,1.67187 c 1.49219,-0.0586 3.76172,-0.17578 6.09375,-0.17578 2.27344,0 4.72266,0.11719 6.21875,0.17578 l 0,-1.67187 -1.97266,-0.30079 c -1.3164,-0.23828 -1.97265,-0.59765 -1.97265,-4.78125 l 0,-12.90625 c 0,-6.03906 -2.03516,-10.22265 -9.08594,-10.22265 -3.16797,0 -6.57422,2.03125 -8.54687,3.88672 l 0,-16.31641 c -2.98829,1.49219 -5.19922,2.32813 -8.3086,3.22656 l 0,1.4336 c 3.88672,0.77734 3.88672,1.49609 3.88672,4.54297 l 0,26.35546 c 0,4.1836 -0.59766,4.54297 -1.97266,4.78125 l -1.97265,0.30079 z m 0,0"
       id="path227"
       inkscape:connector-curvature="0" /><path
       style="fill:#ffffff;fill-opacity:1;fill-rule:nonzero;stroke:none"
       d="m 499.39453,582.79687 c 4.23438,0 8,-0.67187 11.29297,-1.88281 l 0,-8.94531 c -2.41797,1.01172 -6.18359,2.01953 -10.28516,2.01953 -5.3789,0 -6.65625,-2.01953 -6.85937,-5.64844 l 19.43359,0 c 0.13281,-1.21093 0.19922,-2.35547 0.19922,-3.5625 0,-8.53906 -3.69531,-16.27343 -15.46484,-16.27343 -11.29297,0 -16.60547,8.26953 -16.60547,17.07812 0,10.08594 5.04297,17.21484 18.28906,17.21484 m -5.64844,-20.98046 c 0.13282,-2.35157 1.14063,-4.77344 4.03516,-4.77344 2.55469,0 3.62891,2.21875 3.62891,4.37109 l 0,0.40235 z m 35.56641,20.98046 c 4.50781,0 7.19531,-1.75 9.07812,-3.16015 l 0,2.62109 11.76954,0 0,-33.21484 -12.10547,0 0,22.66015 c -1.14063,0.8711 -2.55469,1.7461 -4.03516,1.7461 -2.41797,0 -3.62891,-1.07422 -3.62891,-4.10156 l 0,-20.30469 -12.17187,0 0,22.12109 c 0,6.65625 2.89453,11.63281 11.09375,11.63281 m 27.70312,-0.53906 12.10547,0 0,-21.65234 c 1.67969,-0.8711 4.57032,-1.67969 7.26172,-1.67969 1.7461,0 2.82422,0.20313 3.69531,0.40234 l 0,-10.48828 c -0.60546,-0.19922 -1.34375,-0.33593 -2.6875,-0.33593 -3.02734,0 -6.12109,1.27734 -8.53906,4.03515 l 0,-3.49609 -11.83594,0 z m 34.89844,0.53906 c 4.50391,0 7.39453,-2.08593 8.67188,-4.17187 1.27734,2.625 3.69922,4.17187 7.86718,4.17187 3.16016,0 4.64063,-0.74218 5.58204,-1.34765 l 0,-7.46094 c -0.33594,0.0664 -0.8086,0.13281 -1.07813,0.13281 -1.34375,0 -1.87891,-0.80468 -1.87891,-2.35156 l 0,-10.35547 c 0,-8.80859 -4.37109,-12.91015 -15.1289,-12.91015 -4.64063,0 -8.67578,0.80859 -11.09766,1.67968 l 0,8.94532 c 1.95313,-0.60547 5.78516,-1.41407 9.01172,-1.41407 3.63281,0 5.10938,1.27735 5.10938,4.03516 l 0,1.07422 c -0.46875,0 -1.00782,-0.0664 -2.15235,-0.0664 -9.07422,0 -15.66406,2.55469 -15.66406,10.15235 0,6.92578 4.77344,9.88671 10.75781,9.88671 m 4.10156,-8.13671 c -1.88281,0 -3.09375,-0.60547 -3.09375,-2.48829 0,-2.21875 1.21094,-3.09375 4.57422,-3.09375 0.46875,0 0.80469,0 1.47657,0.0703 l 0,4.23437 c -0.67188,0.60547 -1.47657,1.27735 -2.95704,1.27735 m 38.86329,8.13671 c 3.6289,0 6.52343,-0.74218 8.60546,-1.54687 l 0,-9.41406 c -2.28515,1.27734 -4.23437,1.8164 -7.66406,1.8164 -3.96875,0 -6.32031,-2.6914 -6.32031,-7.66797 0,-6.05078 2.55469,-8.46875 6.25391,-8.46875 3.02343,0 5.17578,0.67188 7.1914,1.41016 l 0,-9.21094 c -1.94922,-0.53906 -4.36719,-1.21093 -8.33594,-1.21093 -11.69921,0 -17.75,7.46484 -17.75,17.48046 0,10.42188 5.51172,16.8125 18.01954,16.8125"
       id="path229"
       inkscape:connector-curvature="0" /></g><g
     transform="matrix(0.66244292,0,0,0.66244292,-296.70491,54.358113)"
     id="g3642"
     inkscape:export-xdpi="71.730446"
     inkscape:export-ydpi="71.730446"><path
       style="fill:#ee381e;fill-opacity:1;fill-rule:nonzero;stroke:none"
       d="m 482.95703,191.96484 c 1.49609,-0.0586 3.76563,-0.23828 6.09766,-0.23828 2.26953,0 5.49609,0.17969 6.99218,0.23828 l 0,-1.67187 -2.75,-0.30078 c -1.3164,-0.17969 -1.97265,-0.59766 -1.97265,-4.78125 l 0,-16.91407 c 1.85156,-1.49218 4.24609,-2.26953 6.33594,-2.26953 1.07812,0 2.57031,0.17969 3.28906,0.53516 l 0.47656,-4.12109 c -0.71875,-0.17969 -1.49609,-0.35938 -2.57031,-0.35938 -2.44922,0 -6.03516,2.08984 -7.53125,4.18359 l 0,-4.48437 c -2.98828,1.31641 -5.19922,1.97266 -8.3086,2.87109 l 0,1.4336 c 3.88672,0.77734 3.88672,1.49609 3.88672,4.54297 l 0,14.58203 c 0,4.18359 -0.59765,4.54297 -1.97265,4.78125 l -1.97266,0.30078 z m 34.60547,0.71875 c 4.30469,0 8.06641,-1.85547 9.20312,-3.70703 l -0.17968,-1.49609 c -1.91016,0.95703 -4.48047,1.67578 -7.88672,1.67578 -6.69531,0 -9.92188,-5.37891 -9.92188,-11.83594 0,-0.53515 0,-1.13281 0.0586,-1.73047 l 19.30468,0 c 0.1211,-0.77734 0.1211,-1.375 0.1211,-2.15234 0,-5.79688 -3.58594,-11.35547 -11,-11.35547 -7.76953,0 -13.20703,6.69141 -13.20703,15.77734 0,9.14454 4.72265,14.82422 13.50781,14.82422 m -8.54688,-19.48437 c 0.47657,-4.06641 2.98829,-8.48828 8.00782,-8.48828 4.18359,0 6.27734,3.64453 6.27734,7.17187 0,0.83594 -0.35937,1.31641 -1.375,1.31641 z m 33.28907,19.48437 c 5.97656,0 10.33984,-4.0039 10.33984,-8.78906 0,-10.69531 -15.0625,-7.82812 -15.0625,-14.76172 0,-3.04687 2.33203,-4.60156 5.91797,-4.60156 4.00391,0 5.79687,1.97266 6.09766,5.79687 l 2.21093,0 c -0.17968,-2.57031 -0.23828,-4.12109 -0.12109,-6.6914 -1.79297,-0.71875 -4.89844,-1.55469 -7.94922,-1.55469 -5.79687,0 -10.10156,3.10547 -10.10156,7.89063 0,10.8164 15.0039,7.17187 15.0039,14.64062 0,3.34766 -2.6289,5.4375 -6.39453,5.4375 -5.08203,0 -6.33593,-2.32812 -6.875,-6.57422 l -2.21093,0 c 0.17968,2.8125 0.30078,5.02344 0.17968,7.83203 2.39063,0.77735 5.25782,1.375 8.96485,1.375 m 29.46484,0 c 4.30469,0 8.07031,-1.85547 9.20313,-3.70703 l -0.17969,-1.49609 c -1.91016,0.95703 -4.48047,1.67578 -7.88672,1.67578 -6.69531,0 -9.92188,-5.37891 -9.92188,-11.83594 0,-0.53515 0,-1.13281 0.0586,-1.73047 l 19.30469,0 c 0.12109,-0.77734 0.12109,-1.375 0.12109,-2.15234 0,-5.79688 -3.58594,-11.35547 -10.99609,-11.35547 -7.76954,0 -13.21094,6.69141 -13.21094,15.77734 0,9.14454 4.72265,14.82422 13.50781,14.82422 m -8.54687,-19.48437 c 0.48046,-4.06641 2.98828,-8.48828 8.00781,-8.48828 4.18359,0 6.27734,3.64453 6.27734,7.17187 0,0.83594 -0.35937,1.31641 -1.375,1.31641 z m 30.66015,19.48437 c 3.64844,0 6.875,-2.27343 7.94922,-4.0664 l 0.12109,0 c 0,2.45312 1.61329,4.0664 4.36329,4.0664 1.73046,0 3.52343,-0.41797 4.53906,-1.07812 l 0,-1.67188 c -3.64453,0 -4.71875,-0.83593 -4.71875,-3.76562 0,-5.37891 0.23828,-9.92188 0.23828,-14.58203 0,-5.79688 -3.34766,-9.50391 -10.10156,-9.50391 -3.28516,0 -6.75391,1.73438 -8.1875,3.40625 l 0.30078,1.73438 c 1.85156,-1.01563 4.0625,-1.61329 6.8125,-1.61329 4.66015,0 6.6914,2.44922 6.6914,7.05079 l 0,3.46875 c -0.89453,-0.0625 -2.39062,-0.0625 -3.22656,-0.0625 -7.64844,0 -12.60937,3.58593 -12.60937,9.20312 0,4.36328 3.22656,7.41406 7.82812,7.41406 m 1.61328,-3.46875 c -2.92578,0 -4.89843,-1.79297 -4.89843,-4.71875 0,-3.64843 2.74609,-5.85937 8.90234,-5.85937 0.66016,0 1.67578,0 2.33203,0.0586 -0.0586,1.25781 -0.17969,5.73828 -0.17969,7.89063 -1.19531,1.375 -3.40625,2.6289 -6.15625,2.6289 m 20.14063,2.75 c 1.49609,-0.0586 3.76562,-0.23828 6.09765,-0.23828 2.26954,0 5.5,0.17969 6.99219,0.23828 l 0,-1.67187 -2.75,-0.30078 c -1.3125,-0.17969 -1.97265,-0.59766 -1.97265,-4.78125 l 0,-16.91407 c 1.85546,-1.49218 4.24609,-2.26953 6.33593,-2.26953 1.07813,0 2.57032,0.17969 3.28907,0.53516 l 0.47656,-4.12109 c -0.71485,-0.17969 -1.49219,-0.35938 -2.57031,-0.35938 -2.44922,0 -6.03516,2.08984 -7.53125,4.18359 l 0,-4.48437 c -2.98829,1.31641 -5.19922,1.97266 -8.30469,2.87109 l 0,1.4336 c 3.88281,0.77734 3.88281,1.49609 3.88281,4.54297 l 0,14.58203 c 0,4.18359 -0.59766,4.54297 -1.97266,4.78125 l -1.97265,0.30078 z m 34.72656,0.71875 c 4.42188,0 7.76953,-2.03515 8.84375,-3.82812 l -0.29687,-1.55078 c -1.79297,1.19531 -4.2461,1.85156 -6.9336,1.85156 -6.21484,0 -10.57812,-4.24219 -10.57812,-11.89453 0,-7.94922 4.24218,-12.60938 9.32422,-12.60938 4.24218,0 5.61718,2.26953 5.79687,5.67578 l 2.26953,0 c 0,-1.97265 0.0586,-4.83984 0.23828,-6.8125 -1.97265,-0.71484 -4.78125,-1.43359 -7.94922,-1.43359 -7.82812,0 -14.34375,6.875 -14.34375,15.77734 0,9.08594 5.08204,14.82422 13.62891,14.82422 m 13.80469,-0.71875 c 1.49609,-0.0586 3.76562,-0.17968 6.09765,-0.17968 2.26954,0 4.71875,0.12109 6.21485,0.17968 l 0,-1.67187 -1.97266,-0.30078 c -1.3164,-0.23828 -1.97265,-0.59766 -1.97265,-4.78125 l 0,-17.27344 c 1.55468,-1.01563 4.24218,-2.32813 6.93359,-2.32813 5.07812,0 6.27734,2.8086 6.27734,7.35157 l 0,12.25 c 0,4.18359 -0.60156,4.54297 -1.97656,4.78125 l -1.96875,0.30078 0,1.67187 c 1.49219,-0.0586 3.76172,-0.17968 6.09375,-0.17968 2.27344,0 4.72266,0.12109 6.21875,0.17968 l 0,-1.67187 -1.97266,-0.30078 c -1.3164,-0.23828 -1.97265,-0.59766 -1.97265,-4.78125 l 0,-12.91016 c 0,-6.03516 -2.03516,-10.21875 -9.08594,-10.21875 -3.16797,0 -6.57422,2.03125 -8.54687,3.88281 l 0,-16.3164 c -2.98829,1.49609 -5.19922,2.33203 -8.3086,3.23047 l 0,1.43359 c 3.88672,0.77734 3.88672,1.49219 3.88672,4.54297 l 0,26.35547 c 0,4.18359 -0.59766,4.54297 -1.97266,4.78125 l -1.97265,0.30078 z m 0,0"
       id="path231"
       inkscape:connector-curvature="0" /><path
       style="fill:#ee381e;fill-opacity:1;fill-rule:nonzero;stroke:none"
       d="m 499.39453,147.67578 c 4.23438,0 8,-0.67187 11.29297,-1.88281 l 0,-8.94141 c -2.41797,1.00781 -6.18359,2.01953 -10.28516,2.01953 -5.3789,0 -6.65625,-2.01953 -6.85937,-5.64843 l 19.43359,0 c 0.13281,-1.21094 0.19922,-2.35547 0.19922,-3.56641 0,-8.53906 -3.69531,-16.26953 -15.46484,-16.26953 -11.29297,0 -16.60547,8.26953 -16.60547,17.07812 0,10.08594 5.04297,17.21094 18.28906,17.21094 m -5.64844,-20.97656 c 0.13282,-2.35547 1.14063,-4.77344 4.03516,-4.77344 2.55469,0 3.62891,2.21875 3.62891,4.3711 l 0,0.40234 z m 35.56641,20.97656 c 4.50781,0 7.19531,-1.74609 9.07812,-3.15625 l 0,2.62109 11.76954,0 0,-33.21874 -12.10547,0 0,22.66015 c -1.14063,0.875 -2.55469,1.75 -4.03516,1.75 -2.41797,0 -3.62891,-1.07812 -3.62891,-4.10156 l 0,-20.30859 -12.17187,0 0,22.12499 c 0,6.65625 2.89453,11.62891 11.09375,11.62891 m 27.70312,-0.53516 12.10547,0 0,-21.65234 c 1.67969,-0.875 4.57032,-1.67969 7.26172,-1.67969 1.7461,0 2.82422,0.19922 3.69531,0.40235 l 0,-10.48828 c -0.60546,-0.20313 -1.34375,-0.33594 -2.6875,-0.33594 -3.02734,0 -6.12109,1.27734 -8.53906,4.03516 l 0,-3.5 -11.83594,0 z m 34.89844,0.53516 c 4.50391,0 7.39453,-2.08203 8.67188,-4.16797 1.27734,2.6211 3.69922,4.16797 7.86718,4.16797 3.16016,0 4.64063,-0.73828 5.58204,-1.34375 l 0,-7.46094 c -0.33594,0.0664 -0.8086,0.13282 -1.07813,0.13282 -1.34375,0 -1.87891,-0.8086 -1.87891,-2.35157 l 0,-10.35546 c 0,-8.8086 -4.37109,-12.91016 -15.1289,-12.91016 -4.64063,0 -8.67578,0.80469 -11.09766,1.67969 l 0,8.9414 c 1.95313,-0.60156 5.78516,-1.41015 9.01172,-1.41015 3.63281,0 5.10938,1.27734 5.10938,4.03515 l 0,1.07422 c -0.46875,0 -1.00782,-0.0664 -2.15235,-0.0664 -9.07422,0 -15.66406,2.55468 -15.66406,10.15234 0,6.92578 4.77344,9.88281 10.75781,9.88281 m 4.10156,-8.13281 c -1.88281,0 -3.09375,-0.60547 -3.09375,-2.48828 0,-2.21875 1.21094,-3.09375 4.57422,-3.09375 0.46875,0 0.80469,0 1.47657,0.0664 l 0,4.23828 c -0.67188,0.60547 -1.47657,1.27735 -2.95704,1.27735 m 38.86329,8.13281 c 3.6289,0 6.52343,-0.73828 8.60546,-1.54687 l 0,-9.41016 c -2.28515,1.27734 -4.23437,1.81641 -7.66406,1.81641 -3.96875,0 -6.32031,-2.69141 -6.32031,-7.66797 0,-6.05078 2.55469,-8.47266 6.25391,-8.47266 3.02343,0 5.17578,0.67578 7.1914,1.41406 l 0,-9.21093 c -1.94922,-0.53907 -4.36719,-1.21094 -8.33594,-1.21094 -11.69921,0 -17.75,7.46094 -17.75,17.48047 0,10.42187 5.51172,16.80859 18.01954,16.80859"
       id="path233"
       inkscape:connector-curvature="0" /></g></svg>